<svg xmlns="http://www.w3.org/2000/svg" width="244.171" height="244.171" viewBox="0 0 244.171 244.171">
  <path id="gatsby" d="M122.086,0C54.939,0,0,54.939,0,122.086S54.939,244.171,122.086,244.171s122.086-54.939,122.086-122.086S189.233,0,122.086,0Zm0,26.157A96.164,96.164,0,0,1,199.7,65.407L186.618,76.751C171.795,56.688,148.243,43.6,122.086,43.6c-34.011,0-62.783,21.8-74.126,52.324L148.243,196.212c25.292-8.719,44.49-30.521,50.594-56.688H156.972V122.086h61.043c0,45.345-32.271,83.71-75,93.294L28.792,101.168c9.584-42.74,47.949-75.022,93.294-75.022ZM26.157,123.825l95.064,94.189c-24.417-.875-48.844-9.594-67.157-27.907s-27.907-42.74-27.907-66.282Z" fill="#639"/>
</svg>
