<svg xmlns="http://www.w3.org/2000/svg" width="1021.813" height="996.512" viewBox="0 0 1021.813 996.512">
  <path id="github" d="M510.907.3C228.631.3,0,229.055,0,511.2c0,225.778,146.375,417.24,349.332,484.723,25.545,4.811,34.912-10.984,34.912-24.566,0-12.134-.426-44.279-.639-86.854-142.117,30.825-172.09-68.547-172.09-68.547-23.246-58.967-56.838-74.72-56.838-74.72-46.28-31.676,3.576-31.038,3.576-31.038,51.3,3.576,78.254,52.623,78.254,52.623,45.556,78.126,119.595,55.561,148.8,42.49,4.6-33.039,17.754-55.561,32.357-68.334C304.2,724.209,184.948,680.271,184.948,484.509c0-55.774,19.8-101.33,52.581-137.093-5.748-12.9-22.991-64.843,4.47-135.22,0,0,42.788-13.709,140.5,52.368,40.873-11.368,84.3-16.988,127.727-17.243,43.427.255,86.854,5.875,127.727,17.243C735.024,198.486,777.813,212.2,777.813,212.2c27.461,70.377,10.218,122.32,5.109,135.22,32.57,35.763,52.368,81.319,52.368,137.093,0,196.273-119.424,239.488-233.1,252.047,17.882,15.327,34.486,46.663,34.486,94.518,0,68.376-.639,123.3-.639,139.9,0,13.411,8.941,29.377,35.125,24.268,204.405-67.014,350.652-258.6,350.652-484.041C1021.813,229.055,793.055.3,510.907.3" transform="translate(0 -0.297)"/>
</svg>
