<svg xmlns="http://www.w3.org/2000/svg" xmlns:xlink="http://www.w3.org/1999/xlink" width="12444.07" height="20216.779" viewBox="0 0 12444.07 20216.779"><defs><clipPath id="a"><path d="M2557.2-2936.254l154.146,170.8,133.314,354.118v395.775l-50,195.808-208.3,145.814-49.986,74.99,99.98,312.456,74.993,354.115-74.993,145.812-49.995,179.14,25,158.315,99.988,279.125,49.989,129.15V184.132L2673.846,409.1l-87.488,241.634L2494.71,838.2,2348.9,954.857l-131.692,104.9-32.046,36.98-88.742,209.534-98.61,108.467-86.271,66.555-177.5,81.354-212,103.534L1327.3,1680.97,1305.1,1742.6l-234.186,103.534V1969.4l140.513-73.956,142.976-36.979h167.638l123.253-12.326,88.742-36.974,103.54-12.326,187.343-39.439H2217.2l187.354,39.439,197.21,49.3,98.608,73.959,111.94,157.876,144.647,225.642,62.723,121.069,59.807,90.435L3239.95,2596.8l304.559,203.583H3582l29.162-108.317,158.315-33.328L4061.1,2692.07l112.478,179.147,25,95.82,166.642,45.82,508.267,170.815,341.615,66.65,194.423,72.405L5559.9,3458.313l108.467,133.115,73.957,322.932,66.557,579.306,41.9,446.194v862.8L5806.413,6322.8,5771.9,6818.29l-27.115,601.5-47.1,466.4-112.161,240.353-147.414,173.049-330.083,195.487-22.43,137.8L4906.142,8927.7l-128.189,112.164-141,67.3-419.818,118.573-16.024,173.052-48.068,121.776L4031.262,9651.96,3851.8,9776.944l-176.265,86.527-474.286,189.075-423.021,92.934-426.218,48.068-769.12,41.667v1420.137l322.205,70.4,156.2,51.817,17.071,108.089,91.015,9.48,180.151,85.33,70.152,106.188,18.963,117.569L2362.8,12424.2l-106.187,64.471h-106.2l-24.653,125.153-121.357,64.475-75.847,123.258-64.479,144.111-20.854,125.152v159.287l20.854,223.762,100.509,210.484,106.188,163.078,142.219,119.463,183.935,91.021,113.776,37.925,85.333,34.133,26.553,159.287h132.731l81.542,62.576,88.718,104.67,70.5,137.8,12.827,166.642-51.281,128.189L2867.9,14978.1l-83.317,60.888s-133.512,57.686-188.541,57.686H1175.822l-4899.955-86.527v-67.3l-57.05-78.216-53.1-130.845v-166.87l15.167-127.05,47.407-121.36,96.709-75.852,161.189-68.267,51.2-15.168v-129.686l68.6-35.251,224.485-50.634,172.116-103.565,199.841-233.384,75.856-128.362,30.631-210.048v-237.761l-30.631-172.125-75.856-156.074-71.472-106.482-53.97-37.924-13.131-121.07-151.7-26.257-122.535-116.692-11.668-110.859,11.668-161.909,78.767-113.778,109.406-62.721,123.986-23.342,29.172-26.253-11.673-75.852,61.263-27.714,156.077-17.5,194-16.044,83.145-11.669,21.878-23.341,38.209-1281.985H-3198.8l-404.286-138.048-623.676-221.863-394.423-197.209-315.54-182.42-342.651-391.957-389.493-544.8-133.12-308.139-130.654-394.425-175.019-559.586-123.266-530-115.858-480.705L-6423.2,5938.2l-17.261-315.544-83.814-475.766-36.979-357.451-19.717-221.857-12.322-150.375,109.9-94.686,108.958-294.831,711.439-679.4-12.815-121.779,198.693-272.4,224.328-131.39,224.325-35.249,108.957-73.708,125.606-7.867h298.37l73.955-75.967,101.066-44.375,130.654-17.257,150.379,46.838,108.458,64.095,64.093,34.533,173.18-29.045h109.965l159.324,104.353,76.3-104.353,60.591-54.789,111.759-80.813,213.187-157.088h140.891l187.347,13.551,165.163,22.185,115.861-271.166V1951.994l-56.7-256.374-59.165-66.56-91.213-83.814-113.39-24.65-91.216-76.424-91.207-44.367-106.375-78.887L-3078.1,1192.73l-39.439-140.511-34.517-106-54.229-103.542-27.121-46.835-114.742-61.63L-3474.988,593.7l-81.35-212-73.959-318-12.329-350.047,12.329-83.82-64.089-115.854-106-157.776-76.421-12.319-64.093-34.516-61.635-29.581-27.109-194.747,64.092-281.024,88.745-197.215,88.742-147.906v-162.7l-54.233-59.161-69.021-61.635-41.91-46.835-24.652-162.7v-130.649l165.1-293.411v-106l-76.413-54.237-22.12-110.925,34.512-86.276-12.392-96.146-36.977-24.65,14.856-98.6,51.7-128.19,172.558-266.238,78.887-96.135,162.7-150.377,76.413-49.306,73.956-59.162,83.822-83.814,194.745-219.393,133.111-140.519,96.145-83.814,108.467-39.439,32.047-106,207.075-197.218,367.3-172.558,465.921-142.97,540.7-119.6,462.689-30.34h240.818l85.335,53.1,191.52,9.478H94.737l98.609,51.2h337.53l121.362,45.507,283.3,173.388,151.64,132.788,124.574,165.09,162.481,81.237,167.882,96.332,530.765,224.333,66.929,134.348,88.639,115.572,89.766,81.907,68.916,104.568,78.092,117.612,98.739,111.083L2624.557-3353v241.24l-32.543,35.912-22.443,74.054Z" transform="translate(6593.291 5120.109)" fill="#fff"/></clipPath><linearGradient id="b" x1="0.244" y1="0.083" x2="0.918" y2="0.83" gradientUnits="objectBoundingBox"><stop offset="0" stop-color="#db3eb1" stop-opacity="0.2"/><stop offset="0.77" stop-color="#42b5e6" stop-opacity="0.2"/><stop offset="1" stop-color="#41b6e6" stop-opacity="0.2"/></linearGradient></defs><g transform="translate(11886.918 5116.109)"><g transform="translate(-11886.919 -5116.109)" clip-path="url(#a)"><image width="21533" height="32300" transform="translate(-4247.081 -10555)" xlink:href="C:/Users/accou/Downloads/pexels-dominika-roseclay-1244705.jpg"/></g><path d="M2557.2-2936.254l154.146,170.8,133.314,354.118v395.775l-50,195.808-208.3,145.814-49.986,74.99,99.98,312.456,74.993,354.115-74.993,145.812-49.995,179.14,25,158.315,99.988,279.125,49.989,129.15V184.132L2673.846,409.1l-87.488,241.634L2494.71,838.2,2348.9,954.857l-131.692,104.9-32.046,36.98-88.742,209.534-98.61,108.467-86.271,66.555-177.5,81.354-212,103.534L1327.3,1680.97,1305.1,1742.6l-234.186,103.534V1969.4l140.513-73.956,142.976-36.979h167.638l123.253-12.326,88.742-36.974,103.54-12.326,187.343-39.439H2217.2l187.354,39.439,197.21,49.3,98.608,73.959,111.94,157.876,144.647,225.642,62.723,121.069,59.807,90.435L3239.95,2596.8l304.559,203.583H3582l29.162-108.317,158.315-33.328L4061.1,2692.07l112.478,179.147,25,95.82,166.642,45.82,508.267,170.815,341.615,66.65,194.423,72.405L5559.9,3458.313l108.467,133.115,73.957,322.932,66.557,579.306,41.9,446.194v862.8L5806.413,6322.8,5771.9,6818.29l-27.115,601.5-47.1,466.4-112.161,240.353-147.414,173.049-330.083,195.487-22.43,137.8L4906.142,8927.7l-128.189,112.164-141,67.3-419.818,118.573-16.024,173.052-48.068,121.776L4031.262,9651.96,3851.8,9776.944l-176.265,86.527-474.286,189.075-423.021,92.934-426.218,48.068-769.12,41.667v1420.137l322.205,70.4,156.2,51.817,17.071,108.089,91.015,9.48,180.151,85.33,70.152,106.188,18.963,117.569L2362.8,12424.2l-106.187,64.471h-106.2l-24.653,125.153-121.357,64.475-75.847,123.258-64.479,144.111-20.854,125.152v159.287l20.854,223.762,100.509,210.484,106.188,163.078,142.219,119.463,183.935,91.021,113.776,37.925,85.333,34.133,26.553,159.287h132.731l81.542,62.576,88.718,104.67,70.5,137.8,12.827,166.642-51.281,128.189L2867.9,14978.1l-83.317,60.888s-133.512,57.686-188.541,57.686H1175.822l-4899.955-86.527v-67.3l-57.05-78.216-53.1-130.845v-166.87l15.167-127.05,47.407-121.36,96.709-75.852,161.189-68.267,51.2-15.168v-129.686l68.6-35.251,224.485-50.634,172.116-103.565,199.841-233.384,75.856-128.362,30.631-210.048v-237.761l-30.631-172.125-75.856-156.074-71.472-106.482-53.97-37.924-13.131-121.07-151.7-26.257-122.535-116.692-11.668-110.859,11.668-161.909,78.767-113.778,109.406-62.721,123.986-23.342,29.172-26.253-11.673-75.852,61.263-27.714,156.077-17.5,194-16.044,83.145-11.669,21.878-23.341,38.209-1281.985H-3198.8l-404.286-138.048-623.676-221.863-394.423-197.209-315.54-182.42-342.651-391.957-389.493-544.8-133.12-308.139-130.654-394.425-175.019-559.586-123.266-530-115.858-480.705L-6423.2,5938.2l-17.261-315.544-83.814-475.766-36.979-357.451-19.717-221.857-12.322-150.375,109.9-94.686,108.958-294.831,711.439-679.4-12.815-121.779,198.693-272.4,224.328-131.39,224.325-35.249,108.957-73.708,125.606-7.867h298.37l73.955-75.967,101.066-44.375,130.654-17.257,150.379,46.838,108.458,64.095,64.093,34.533,173.18-29.045h109.965l159.324,104.353,76.3-104.353,60.591-54.789,111.759-80.813,213.187-157.088h140.891l187.347,13.551,165.163,22.185,115.861-271.166V1951.994l-56.7-256.374-59.165-66.56-91.213-83.814-113.39-24.65-91.216-76.424-91.207-44.367-106.375-78.887L-3078.1,1192.73l-39.439-140.511-34.517-106-54.229-103.542-27.121-46.835-114.742-61.63L-3474.988,593.7l-81.35-212-73.959-318-12.329-350.047,12.329-83.82-64.089-115.854-106-157.776-76.421-12.319-64.093-34.516-61.635-29.581-27.109-194.747,64.092-281.024,88.745-197.215,88.742-147.906v-162.7l-54.233-59.161-69.021-61.635-41.91-46.835-24.652-162.7v-130.649l165.1-293.411v-106l-76.413-54.237-22.12-110.925,34.512-86.276-12.392-96.146-36.977-24.65,14.856-98.6,51.7-128.19,172.558-266.238,78.887-96.135,162.7-150.377,76.413-49.306,73.956-59.162,83.822-83.814,194.745-219.393,133.111-140.519,96.145-83.814,108.467-39.439,32.047-106,207.075-197.218,367.3-172.558,465.921-142.97,540.7-119.6,462.689-30.34h240.818l85.335,53.1,191.52,9.478H94.737l98.609,51.2h337.53l121.362,45.507,283.3,173.388,151.64,132.788,124.574,165.09,162.481,81.237,167.882,96.332,530.765,224.333,66.929,134.348,88.639,115.572,89.766,81.907,68.916,104.568,78.092,117.612,98.739,111.083L2624.557-3353v241.24l-32.543,35.912-22.443,74.054Z" transform="translate(-5293.628 4)" fill="url(#b)"/><g transform="translate(-9264 5530.892)" fill="#db3eb1" stroke="#707070" stroke-width="1"><rect width="2437" height="178" stroke="none"/><rect x="0.5" y="0.5" width="2436" height="177" fill="none"/></g><g transform="translate(-7203 4466.891)" fill="#41b6e6" stroke="#707070" stroke-width="1"><rect width="2437" height="178" stroke="none"/><rect x="0.5" y="0.5" width="2436" height="177" fill="none"/></g><g transform="translate(-5383 6253.891)" fill="#41b6e6" stroke="#707070" stroke-width="1"><rect width="2437" height="178" stroke="none"/><rect x="0.5" y="0.5" width="2436" height="177" fill="none"/></g><g transform="translate(-3113 2115.892)" fill="#db3eb1" stroke="#707070" stroke-width="1"><rect width="2437" height="209" stroke="none"/><rect x="0.5" y="0.5" width="2436" height="208" fill="none"/></g><g transform="translate(-9469 472.892)" fill="#db3eb1" stroke="#707070" stroke-width="1"><rect width="2437" height="178" stroke="none"/><rect x="0.5" y="0.5" width="2436" height="177" fill="none"/></g><g transform="translate(-5550 -4357.109)" fill="#41b6e6" stroke="#707070" stroke-width="1"><rect width="2437" height="178" stroke="none"/><rect x="0.5" y="0.5" width="2436" height="177" fill="none"/></g><g transform="translate(-2097 8749.891)" fill="#db3eb1" stroke="#707070" stroke-width="1"><rect width="2437" height="209" stroke="none"/><rect x="0.5" y="0.5" width="2436" height="208" fill="none"/></g><g transform="translate(-11250 9171.891)" fill="#41b6e6" stroke="#707070" stroke-width="1"><rect width="2437" height="209" stroke="none"/><rect x="0.5" y="0.5" width="2436" height="208" fill="none"/></g></g></svg>