<svg xmlns="http://www.w3.org/2000/svg" width="504.955" height="670.542" viewBox="0 0 504.955 670.542">
  <defs>
    <style>
      .cls-1 {
        fill: #f1c27d;
      }

      .cls-2 {
        fill: #d0cde1;
      }

      .cls-3 {
        fill: #a0616a;
      }

      .cls-4 {
        fill: #faf0be;
      }

      .cls-5 {
        fill: #41b6e6;
      }

      .cls-6 {
        fill: #3f3d56;
      }

      .cls-7 {
        fill: none;
        stroke: #d0cde1;
        stroke-miterlimit: 10;
        stroke-width: 2px;
      }
    </style>
  </defs>
  <g id="undraw_dev_productivity_umsq_1_" data-name="undraw_dev_productivity_umsq(1)" transform="translate(-180.508 0)">
    <circle id="Ellipse_6" data-name="Ellipse 6" class="cls-1" cx="72.525" cy="72.525" r="72.525" transform="translate(359.886 44.252)"/>
    <path id="Pfad_24" data-name="Pfad 24" class="cls-1" d="M581.591,260.562s13.664,103.008-7.358,114.57,125.08,12.613,125.08,12.613S666.729,298.4,681.445,271.073Z" transform="translate(-203.311 -107.521)"/>
    <path id="Pfad_25" data-name="Pfad 25" class="cls-2" d="M804.643,389.289l-12.151,55.329L766.8,561.677l-.769,6.411L757.165,642.3l-5.9,49.3-3.955,33.119c-24.045,12.358-41.472,20.889-41.472,20.889s-1.5-7.515-3.915-17.131c-16.875,5.059-48.1,13.453-74.561,15.129,9.636,10.74,14.064,20.83,8.058,28.276-18.127,22.447-92.965-24.577-119.14-42.113a70.857,70.857,0,0,0-.69,12.683L495.56,727.052l1.982-35.446,3.343-59.974,4.2-75.212a78.959,78.959,0,0,1-3.324-9.892c-6.135-21.816-13.581-65.379-19.291-101.91-4.6-29.4-8.048-54.244-8.778-59.53-.1-.69-.148-1.045-.148-1.045l110.885-49c7.88,18.275,44.677,23.769,44.677,23.769,30.485-2.1,54.382-18.177,54.382-18.177Z" transform="translate(-201.956 -108.545)"/>
    <path id="Pfad_26" data-name="Pfad 26" class="cls-3" d="M715.755,729.554s-4.695,1.608-12.328,3.886c-16.875,5.059-48.1,13.453-74.561,15.129-22.783,1.46-42.034-2.051-45.555-16.914-1.509-6.391.631-11.648,5.3-15.967,13.926-12.91,50.3-17.536,79.147-19.124,8.146-.444,15.681-.651,21.954-.73,10.652-.138,17.634.079,17.634.079l.168.651Z" transform="translate(-203.458 -113.503)"/>
    <path id="Pfad_27" data-name="Pfad 27" class="cls-4" d="M575.165,153.564,561.6,148.135s28.354-31.216,67.8-28.5l-11.1-12.215s27.121-10.858,51.776,17.644c12.961,14.982,27.957,32.594,37.305,52.432h14.522l-6.061,13.346,21.214,13.346-21.774-2.4a74.575,74.575,0,0,1,.591,22.137A28.642,28.642,0,0,1,705.4,242.663h0s-16.817-34.811-16.817-40.239V216s-13.56-12.215-13.56-20.358l-7.4,9.5-3.7-14.929-45.612,14.929,7.4-12.215-28.354,4.072,11.1-14.929s-32.052,17.644-33.285,32.573-10.614,29.076-10.614,29.076S539.415,173.922,575.165,153.564Z" transform="translate(-203.088 -105.389)"/>
    <path id="Pfad_28" data-name="Pfad 28" class="cls-2" d="M886.4,644.411c-7.387,8.008-25.692,20.07-47.883,33.128-8.255,4.852-17.043,9.853-26.008,14.824-21.392,11.865-43.79,23.621-62.272,33.118-24.045,12.358-41.472,20.889-41.472,20.889s-1.5-7.515-3.915-17.131c-3.235-12.871-8.107-29.509-13.186-36.876-.178-.257-.355-.493-.533-.73-1.48-1.943-2.969-3.077-4.438-3.077l73.4-45.5,31.718-19.666-22.852-54.55L740.3,500.417l17.3-55.043,17.388-55.329h32.586s10.79,23.552,24.588,56.394c2.061,4.912,4.191,10.03,6.361,15.317C866.906,530.794,902.293,627.2,886.4,644.411Z" transform="translate(-204.885 -109.301)"/>
    <path id="Pfad_29" data-name="Pfad 29" class="cls-3" d="M635.89,776.715c-18.127,22.447-92.965-24.577-119.14-42.113-5.7-3.817-9.093-6.233-9.093-6.233L531.6,696.434l7.584-10.109s6.785,3.6,16.816,9.458c.365.217.73.434,1.1.651,8.65,5.079,19.508,11.717,30.466,19.124,15.119,10.227,30.406,21.895,40.259,32.882C637.468,759.18,641.9,769.269,635.89,776.715Z" transform="translate(-202.424 -113.373)"/>
    <path id="Pfad_30" data-name="Pfad 30" class="cls-2" d="M554.265,691.653a47.124,47.124,0,0,0-7.989.651c-22.674,3.9-29.361,24.42-31.264,38.168a70.849,70.849,0,0,0-.69,12.683L494.291,727.75l-7.3-5.612c-17.565-6.125-33.217-17-46.788-29.834a235.214,235.214,0,0,1-31.511-37.369,329.554,329.554,0,0,1-24.38-41.817,30.755,30.755,0,0,1-.424-26.086l24.8-55.28,36.255-80.794q.4-2.885.878-5.641c7.19-41.226,26.451-59.53,26.451-59.53h14.715l9.843,59.53,12.23,73.959-8.571,27.951-19.8,64.551,18.926,20.554Z" transform="translate(-200.686 -109.242)"/>
    <path id="Pfad_31" data-name="Pfad 31" class="cls-5" d="M573.1,520.7l12.58,14.676c4.674-.891,9.554-1.938,14.581-3.114L596.647,520.7,605.482,531c53.255-13.1,119.265-38.564,119.265-38.564s-71.264,5.225-124.474-6.4c-23.543-5.143-47.765,6.527-57.426,28.6-5.616,12.832-4.734,23.949,15.182,23.949A131.558,131.558,0,0,0,578.1,536.7Z" transform="translate(-202.867 -110.604)"/>
    <path id="Pfad_32" data-name="Pfad 32" class="cls-6" d="M857.831,765.544v5.987a13.156,13.156,0,0,1-.9,4.8,13.5,13.5,0,0,1-.957,1.972,13.253,13.253,0,0,1-11.391,6.47H404.172a13.253,13.253,0,0,1-11.391-6.47,13.491,13.491,0,0,1-.957-1.972,13.156,13.156,0,0,1-.9-4.8v-5.987A13.242,13.242,0,0,1,404.172,752.3h25.386v-2.791a.552.552,0,0,1,.552-.552h13.245a.552.552,0,0,1,.552.552V752.3h8.275v-2.791a.551.551,0,0,1,.552-.552h13.245a.552.552,0,0,1,.552.552V752.3h8.285v-2.791a.552.552,0,0,1,.552-.552h13.245a.552.552,0,0,1,.552.552V752.3h8.275v-2.791a.552.552,0,0,1,.552-.552H511.24a.552.552,0,0,1,.552.552V752.3h8.275v-2.791a.552.552,0,0,1,.552-.552h13.245a.552.552,0,0,1,.552.552V752.3H542.7v-2.791a.551.551,0,0,1,.552-.552H556.5a.551.551,0,0,1,.552.552V752.3h8.275v-2.791a.552.552,0,0,1,.552-.552H669.633a.552.552,0,0,1,.552.552V752.3h8.285v-2.791a.552.552,0,0,1,.552-.552h13.245a.558.558,0,0,1,.552.552V752.3h8.275v-2.791a.552.552,0,0,1,.552-.552h13.245a.551.551,0,0,1,.552.552V752.3h8.275v-2.791a.551.551,0,0,1,.552-.552h13.245a.552.552,0,0,1,.552.552V752.3h8.285v-2.791a.551.551,0,0,1,.552-.552h13.245a.549.549,0,0,1,.542.552V752.3h8.285v-2.791a.551.551,0,0,1,.552-.552h13.245a.551.551,0,0,1,.552.552V752.3H791.6v-2.791a.552.552,0,0,1,.552-.552H805.4a.551.551,0,0,1,.552.552V752.3h38.632a13.242,13.242,0,0,1,13.245,13.245Z" transform="translate(-200.82 -114.233)"/>
    <path id="Pfad_33" data-name="Pfad 33" class="cls-6" d="M822.6,510.1H658.449v-3.383H584.014V510.1H419.182a11.1,11.1,0,0,0-11.1,11.1V745.981a11.1,11.1,0,0,0,11.1,11.1H822.6a11.1,11.1,0,0,0,11.1-11.1V521.2a11.1,11.1,0,0,0-11.1-11.1Z" transform="translate(-201.056 -110.904)"/>
    <circle id="Ellipse_7" data-name="Ellipse 7" class="cls-7" cx="24.656" cy="24.656" r="24.656" transform="translate(395.504 453.013)"/>
    <circle id="Ellipse_8" data-name="Ellipse 8" class="cls-2" cx="24.656" cy="24.656" r="24.656" transform="translate(387.614 461.89)"/>
  </g>
</svg>